<svg class="diagram-root" style="background: #f5f6f6" xmlns="http://www.w3.org/2000/svg" xmlns:xlink="http://www.w3.org/1999/xlink"><style>.diagram-root { font-family: "Helvetica Neue", sans-serif; font-size: 12px; } .t { overflow: visible; } .t-bg { y: 40; fill: #fff;   } .th { fill: #005aa0;   } .tht { fill: #fff; font-size: 14px;  } .tf { fill: #323c46; overflow: visible; } .tf.pk { fill: #005aa0; font-weight: bold; } .tf.fk { font-weight: bold; } .ty { fill: #adb1b5; font-weight: normal; text-anchor: end; } .r { fill: transparent; stroke: #c3c3c3; stroke-width: 1; } .l { stroke: 1; } .i { fill: #c2c7ce; stroke: #c2c7ce; } .i.ix { fill: #afb3b6; stroke: #000; } .fa { fill: transparent; overflow: visible; } .fa .bg.hover { fill: #f7f7f7; } .c { cy: 12; r: 4; stroke: #d2d2dc; fill: #d2d2dc; } .hr { fill: transparent; stroke: #323c46; stroke-opacity: 0.035; stroke-width: 13; } .dc { stroke: #fa5a3c; fill: #fa5a3c; } .x { stroke: white; stroke-width: 1; } .hl .th { fill: #1b9bff; } .hl .tht {  } .fhl .bg { fill: #e7f4ff; } .fhls .bg {  } .r.hl { stroke: #1b9bff; } .dim { opacity: 0.25; }</style><g class="drawing-wrapper" transform="translate(-30, -228) scale(1,1)"><g class="rs"><path d="M 559 468 m -1, 0 a 1,1 0 1,0 2,0 a 1,1 0 1,0 -2,0 M 559 468 m -0.5, 0 a 0.5,0.5 0 1,0 1,0 a 0.5,0.5 0 1,0 -1,0  M559 468 L559 468 547 468 M 559 474 m -1, 0 a 1,1 0 1,0 2,0 a 1,1 0 1,0 -2,0 M 559 474 m -0.5, 0 a 0.5,0.5 0 1,0 1,0 a 0.5,0.5 0 1,0 -1,0  M559 474 L559 474 552 468 559 462 M 559 462 m -1, 0 a 1,1 0 1,0 2,0 a 1,1 0 1,0 -2,0 M 559 462 m -0.5, 0 a 0.5,0.5 0 1,0 1,0 a 0.5,0.5 0 1,0 -1,0  M547 468 Q 460 468, 373 391.5 T 199 315 M 187 315 m -1, 0 a 1,1 0 1,0 2,0 a 1,1 0 1,0 -2,0 M 187 315 m -0.5, 0 a 0.5,0.5 0 1,0 1,0 a 0.5,0.5 0 1,0 -1,0  M187 315 L187 315 199 315 M193 321 L193 321 193 309" id="h3479032858" class="r"></path><path d="M 559 493 m -1, 0 a 1,1 0 1,0 2,0 a 1,1 0 1,0 -2,0 M 559 493 m -0.5, 0 a 0.5,0.5 0 1,0 1,0 a 0.5,0.5 0 1,0 -1,0  M559 493 L559 493 547 493 M 559 499 m -1, 0 a 1,1 0 1,0 2,0 a 1,1 0 1,0 -2,0 M 559 499 m -0.5, 0 a 0.5,0.5 0 1,0 1,0 a 0.5,0.5 0 1,0 -1,0  M559 499 L559 499 552 493 559 487 M 559 487 m -1, 0 a 1,1 0 1,0 2,0 a 1,1 0 1,0 -2,0 M 559 487 m -0.5, 0 a 0.5,0.5 0 1,0 1,0 a 0.5,0.5 0 1,0 -1,0  M547 493 Q 460 493, 373 500.5 T 199 508 M 187 508 m -1, 0 a 1,1 0 1,0 2,0 a 1,1 0 1,0 -2,0 M 187 508 m -0.5, 0 a 0.5,0.5 0 1,0 1,0 a 0.5,0.5 0 1,0 -1,0  M187 508 L187 508 199 508 M193 514 L193 514 193 502" id="h1951519537" class="r"></path><path d="M 559 518 m -1, 0 a 1,1 0 1,0 2,0 a 1,1 0 1,0 -2,0 M 559 518 m -0.5, 0 a 0.5,0.5 0 1,0 1,0 a 0.5,0.5 0 1,0 -1,0  M559 518 L559 518 547 518 M 559 524 m -1, 0 a 1,1 0 1,0 2,0 a 1,1 0 1,0 -2,0 M 559 524 m -0.5, 0 a 0.5,0.5 0 1,0 1,0 a 0.5,0.5 0 1,0 -1,0  M559 524 L559 524 552 518 559 512 M 559 512 m -1, 0 a 1,1 0 1,0 2,0 a 1,1 0 1,0 -2,0 M 559 512 m -0.5, 0 a 0.5,0.5 0 1,0 1,0 a 0.5,0.5 0 1,0 -1,0  M547 518 Q 463.5 518, 380 583.5 T 213 649 M 201 649 m -1, 0 a 1,1 0 1,0 2,0 a 1,1 0 1,0 -2,0 M 201 649 m -0.5, 0 a 0.5,0.5 0 1,0 1,0 a 0.5,0.5 0 1,0 -1,0  M201 649 L201 649 213 649 M207 655 L207 655 207 643" id="h221082361" class="r"></path></g><g class="hrs"></g><g class="ts"><svg width="133" height="100" x="54" y="451" id="h850082920" class="t"><rect height="40" width="133" class="th"></rect><text x="13" y="25" class="tht">regions</text><rect height="60" width="133" class="t-bg" y="40"></rect><text x="13" y="61" class="tf pk">regionsID<tspan x="120" class="ty">int</tspan></text><path d="M7,14A2,2 0 0,1 5,12A2,2 0 0,1 7,10A2,2 0 0,1 9,12A2,2 0 0,1 7,14M12.65,10C11.83,7.67 9.61,6 7, 6A6, 6 0 0, 0 1, 12A6, 6 0 0, 0 7, 18C9.61, 18 11.83, 16.33 12.65, 14H17V18H21V14H23V10H12.65Z" class="i pk" transform="translate(87, 48) scale(0.65)"></path><text x="13" y="86" class="tf">name<tspan x="120" class="ty">string</tspan></text></svg><svg width="149" height="100" x="52" y="592" id="h2129794260" class="t"><rect height="40" width="149" class="th"></rect><text x="13" y="25" class="tht">categories</text><rect height="60" width="149" class="t-bg" y="40"></rect><text x="13" y="61" class="tf pk">categoriesID<tspan x="136" class="ty">int</tspan></text><path d="M7,14A2,2 0 0,1 5,12A2,2 0 0,1 7,10A2,2 0 0,1 9,12A2,2 0 0,1 7,14M12.65,10C11.83,7.67 9.61,6 7, 6A6, 6 0 0, 0 1, 12A6, 6 0 0, 0 7, 18C9.61, 18 11.83, 16.33 12.65, 14H17V18H21V14H23V10H12.65Z" class="i pk" transform="translate(103, 48) scale(0.65)"></path><text x="13" y="86" class="tf">name<tspan x="136" class="ty">string</tspan></text></svg><svg width="134" height="150" x="53" y="258" id="h2948373614" class="t"><rect height="40" width="134" class="th"></rect><text x="13" y="25" class="tht">users</text><rect height="110" width="134" class="t-bg" y="40"></rect><text x="13" y="61" class="tf pk">usersID<tspan x="121" class="ty">int</tspan></text><path d="M7,14A2,2 0 0,1 5,12A2,2 0 0,1 7,10A2,2 0 0,1 9,12A2,2 0 0,1 7,14M12.65,10C11.83,7.67 9.61,6 7, 6A6, 6 0 0, 0 1, 12A6, 6 0 0, 0 7, 18C9.61, 18 11.83, 16.33 12.65, 14H17V18H21V14H23V10H12.65Z" class="i pk" transform="translate(88, 48) scale(0.65)"></path><text x="13" y="86" class="tf">username<tspan x="121" class="ty">string</tspan></text><text x="13" y="111" class="tf">password<tspan x="121" class="ty">string</tspan></text><text x="13" y="136" class="tf">region_id<tspan x="121" class="ty">int</tspan></text></svg><svg width="122" height="225" x="559" y="311" id="h2471855060" class="t"><rect height="40" width="122" class="th"></rect><text x="13" y="25" class="tht">posts</text><rect height="185" width="122" class="t-bg" y="40"></rect><text x="13" y="61" class="tf pk">postsID<tspan x="109" class="ty">int</tspan></text><path d="M7,14A2,2 0 0,1 5,12A2,2 0 0,1 7,10A2,2 0 0,1 9,12A2,2 0 0,1 7,14M12.65,10C11.83,7.67 9.61,6 7, 6A6, 6 0 0, 0 1, 12A6, 6 0 0, 0 7, 18C9.61, 18 11.83, 16.33 12.65, 14H17V18H21V14H23V10H12.65Z" class="i pk" transform="translate(76, 48) scale(0.65)"></path><text x="13" y="86" class="tf">title<tspan x="109" class="ty">string</tspan></text><text x="13" y="111" class="tf">text<tspan x="109" class="ty">string</tspan></text><text x="13" y="136" class="tf">location<tspan x="109" class="ty">string</tspan></text><text x="13" y="161" class="tf fk">user_id<tspan x="109" class="ty">int</tspan></text><text x="13" y="186" class="tf fk">region_id<tspan x="109" class="ty">int</tspan></text><text x="13" y="211" class="tf fk">category_id<tspan x="109" class="ty">int</tspan></text></svg></g></g><text class="qdbd-link" x="10" y="20">www.quickdatabasediagrams.com</text></svg>