<svg class="diagram-root" style="background: #f5f6f6" xmlns="http://www.w3.org/2000/svg" xmlns:xlink="http://www.w3.org/1999/xlink"><style>.diagram-root { font-family: "Helvetica Neue", sans-serif; font-size: 12px; } .t { overflow: visible; } .t-bg { y: 40; fill: #fff;   } .th { fill: #005aa0;   } .tht { fill: #fff; font-size: 14px;  } .tf { fill: #323c46; overflow: visible; } .tf.pk { fill: #005aa0; font-weight: bold; } .tf.fk { font-weight: bold; } .ty { fill: #adb1b5; font-weight: normal; text-anchor: end; } .r { fill: transparent; stroke: #c3c3c3; stroke-width: 1; } .l { stroke: 1; } .i { fill: #c2c7ce; stroke: #c2c7ce; } .i.ix { fill: #afb3b6; stroke: #000; } .fa { fill: transparent; overflow: visible; } .fa .bg.hover { fill: #f7f7f7; } .c { cy: 12; r: 4; stroke: #d2d2dc; fill: #d2d2dc; } .hr { fill: transparent; stroke: #323c46; stroke-opacity: 0.035; stroke-width: 13; } .dc { stroke: #fa5a3c; fill: #fa5a3c; } .x { stroke: white; stroke-width: 1; } .hl .th { fill: #1b9bff; } .hl .tht {  } .fhl .bg { fill: #e7f4ff; } .fhls .bg {  } .r.hl { stroke: #1b9bff; } .dim { opacity: 0.25; }</style><g class="drawing-wrapper" transform="translate(9, -105) scale(1,1)"><g class="rs"><path d="M 165 240 m -1, 0 a 1,1 0 1,0 2,0 a 1,1 0 1,0 -2,0 M 165 240 m -0.5, 0 a 0.5,0.5 0 1,0 1,0 a 0.5,0.5 0 1,0 -1,0  M165 240 L165 240 177 240 M171 246 L171 246 171 234 M177 240 Q 209 240, 241 240 T 305 240 M 317 240 m -1, 0 a 1,1 0 1,0 2,0 a 1,1 0 1,0 -2,0 M 317 240 m -0.5, 0 a 0.5,0.5 0 1,0 1,0 a 0.5,0.5 0 1,0 -1,0  M317 240 L317 240 305 240 M 317 246 m -1, 0 a 1,1 0 1,0 2,0 a 1,1 0 1,0 -2,0 M 317 246 m -0.5, 0 a 0.5,0.5 0 1,0 1,0 a 0.5,0.5 0 1,0 -1,0  M317 246 L317 246 310 240 317 234 M 317 234 m -1, 0 a 1,1 0 1,0 2,0 a 1,1 0 1,0 -2,0 M 317 234 m -0.5, 0 a 0.5,0.5 0 1,0 1,0 a 0.5,0.5 0 1,0 -1,0 " id="h3388018607" class="r"></path><path d="M 317 265 m -1, 0 a 1,1 0 1,0 2,0 a 1,1 0 1,0 -2,0 M 317 265 m -0.5, 0 a 0.5,0.5 0 1,0 1,0 a 0.5,0.5 0 1,0 -1,0  M317 265 L317 265 305 265 M 317 271 m -1, 0 a 1,1 0 1,0 2,0 a 1,1 0 1,0 -2,0 M 317 271 m -0.5, 0 a 0.5,0.5 0 1,0 1,0 a 0.5,0.5 0 1,0 -1,0  M317 271 L317 271 310 265 317 259 M 317 259 m -1, 0 a 1,1 0 1,0 2,0 a 1,1 0 1,0 -2,0 M 317 259 m -0.5, 0 a 0.5,0.5 0 1,0 1,0 a 0.5,0.5 0 1,0 -1,0  M305 265 Q 268.75 265, 232.5 354 T 160 443 M 148 443 m -1, 0 a 1,1 0 1,0 2,0 a 1,1 0 1,0 -2,0 M 148 443 m -0.5, 0 a 0.5,0.5 0 1,0 1,0 a 0.5,0.5 0 1,0 -1,0  M148 443 L148 443 160 443 M154 449 L154 449 154 437" id="h841889290" class="r"></path><path d="M 650 217 m -1, 0 a 1,1 0 1,0 2,0 a 1,1 0 1,0 -2,0 M 650 217 m -0.5, 0 a 0.5,0.5 0 1,0 1,0 a 0.5,0.5 0 1,0 -1,0  M650 217 L650 217 638 217 M 650 223 m -1, 0 a 1,1 0 1,0 2,0 a 1,1 0 1,0 -2,0 M 650 223 m -0.5, 0 a 0.5,0.5 0 1,0 1,0 a 0.5,0.5 0 1,0 -1,0  M650 223 L650 223 643 217 650 211 M 650 211 m -1, 0 a 1,1 0 1,0 2,0 a 1,1 0 1,0 -2,0 M 650 211 m -0.5, 0 a 0.5,0.5 0 1,0 1,0 a 0.5,0.5 0 1,0 -1,0  M638 217 Q 590.5 217, 543 216 T 448 215 M 436 215 m -1, 0 a 1,1 0 1,0 2,0 a 1,1 0 1,0 -2,0 M 436 215 m -0.5, 0 a 0.5,0.5 0 1,0 1,0 a 0.5,0.5 0 1,0 -1,0  M436 215 L436 215 448 215 M442 221 L442 221 442 209" id="h3625522388" class="r"></path><path d="M 650 242 m -1, 0 a 1,1 0 1,0 2,0 a 1,1 0 1,0 -2,0 M 650 242 m -0.5, 0 a 0.5,0.5 0 1,0 1,0 a 0.5,0.5 0 1,0 -1,0  M650 242 L650 242 638 242 M 650 248 m -1, 0 a 1,1 0 1,0 2,0 a 1,1 0 1,0 -2,0 M 650 248 m -0.5, 0 a 0.5,0.5 0 1,0 1,0 a 0.5,0.5 0 1,0 -1,0  M650 248 L650 248 643 242 650 236 M 650 236 m -1, 0 a 1,1 0 1,0 2,0 a 1,1 0 1,0 -2,0 M 650 236 m -0.5, 0 a 0.5,0.5 0 1,0 1,0 a 0.5,0.5 0 1,0 -1,0  M638 242 Q 597.25 242, 556.5 324 T 475 406 M 463 406 m -1, 0 a 1,1 0 1,0 2,0 a 1,1 0 1,0 -2,0 M 463 406 m -0.5, 0 a 0.5,0.5 0 1,0 1,0 a 0.5,0.5 0 1,0 -1,0  M463 406 L463 406 475 406 M469 412 L469 412 469 400" id="h2659249755" class="r"></path></g><g class="hrs"></g><g class="ts"><svg width="152" height="125" x="13" y="183" id="h2153083178" class="t"><rect height="40" width="152" class="th"></rect><text x="13" y="25" class="tht">doctors</text><rect height="85" width="152" class="t-bg" y="40"></rect><text x="13" y="61" class="tf pk">doctorsID<tspan x="139" class="ty">int</tspan></text><path d="M7,14A2,2 0 0,1 5,12A2,2 0 0,1 7,10A2,2 0 0,1 9,12A2,2 0 0,1 7,14M12.65,10C11.83,7.67 9.61,6 7, 6A6, 6 0 0, 0 1, 12A6, 6 0 0, 0 7, 18C9.61, 18 11.83, 16.33 12.65, 14H17V18H21V14H23V10H12.65Z" class="i pk" transform="translate(106, 48) scale(0.65)"></path><text x="13" y="86" class="tf">name<tspan x="139" class="ty">string</tspan></text><text x="13" y="111" class="tf">specialization<tspan x="139" class="ty">string</tspan></text></svg><svg width="135" height="150" x="13" y="386" id="h2571196243" class="t"><rect height="40" width="135" class="th"></rect><text x="13" y="25" class="tht">patients</text><rect height="110" width="135" class="t-bg" y="40"></rect><text x="13" y="61" class="tf pk">patientsID<tspan x="122" class="ty">int</tspan></text><path d="M7,14A2,2 0 0,1 5,12A2,2 0 0,1 7,10A2,2 0 0,1 9,12A2,2 0 0,1 7,14M12.65,10C11.83,7.67 9.61,6 7, 6A6, 6 0 0, 0 1, 12A6, 6 0 0, 0 7, 18C9.61, 18 11.83, 16.33 12.65, 14H17V18H21V14H23V10H12.65Z" class="i pk" transform="translate(89, 48) scale(0.65)"></path><text x="13" y="86" class="tf">name<tspan x="122" class="ty">string</tspan></text><text x="13" y="111" class="tf">insurance<tspan x="122" class="ty">string</tspan></text><text x="13" y="136" class="tf">birthday<tspan x="122" class="ty">date</tspan></text></svg><svg width="119" height="125" x="317" y="158" id="h2569522486" class="t"><rect height="40" width="119" class="th"></rect><text x="13" y="25" class="tht">visits</text><rect height="85" width="119" class="t-bg" y="40"></rect><text x="13" y="61" class="tf pk">visitsID<tspan x="106" class="ty">int</tspan></text><path d="M7,14A2,2 0 0,1 5,12A2,2 0 0,1 7,10A2,2 0 0,1 9,12A2,2 0 0,1 7,14M12.65,10C11.83,7.67 9.61,6 7, 6A6, 6 0 0, 0 1, 12A6, 6 0 0, 0 7, 18C9.61, 18 11.83, 16.33 12.65, 14H17V18H21V14H23V10H12.65Z" class="i pk" transform="translate(73, 48) scale(0.65)"></path><text x="13" y="86" class="tf fk">doctor_id<tspan x="106" class="ty">int</tspan></text><text x="13" y="111" class="tf fk">patient_id<tspan x="106" class="ty">int</tspan></text></svg><svg width="143" height="125" x="320" y="349" id="h234337789" class="t"><rect height="40" width="143" class="th"></rect><text x="13" y="25" class="tht">diseases</text><rect height="85" width="143" class="t-bg" y="40"></rect><text x="13" y="61" class="tf pk">diseasesID<tspan x="130" class="ty">int</tspan></text><path d="M7,14A2,2 0 0,1 5,12A2,2 0 0,1 7,10A2,2 0 0,1 9,12A2,2 0 0,1 7,14M12.65,10C11.83,7.67 9.61,6 7, 6A6, 6 0 0, 0 1, 12A6, 6 0 0, 0 7, 18C9.61, 18 11.83, 16.33 12.65, 14H17V18H21V14H23V10H12.65Z" class="i pk" transform="translate(97, 48) scale(0.65)"></path><text x="13" y="86" class="tf">name<tspan x="130" class="ty">string</tspan></text><text x="13" y="111" class="tf">description<tspan x="130" class="ty">string</tspan></text></svg><svg width="150" height="150" x="650" y="135" id="h647382338" class="t"><rect height="40" width="150" class="th"></rect><text x="13" y="25" class="tht">diagnoses</text><rect height="110" width="150" class="t-bg" y="40"></rect><text x="13" y="61" class="tf pk">diagnosesID<tspan x="137" class="ty">int</tspan></text><path d="M7,14A2,2 0 0,1 5,12A2,2 0 0,1 7,10A2,2 0 0,1 9,12A2,2 0 0,1 7,14M12.65,10C11.83,7.67 9.61,6 7, 6A6, 6 0 0, 0 1, 12A6, 6 0 0, 0 7, 18C9.61, 18 11.83, 16.33 12.65, 14H17V18H21V14H23V10H12.65Z" class="i pk" transform="translate(104, 48) scale(0.65)"></path><text x="13" y="86" class="tf fk">visit_id<tspan x="137" class="ty">int</tspan></text><text x="13" y="111" class="tf fk">disease_id<tspan x="137" class="ty">int</tspan></text><text x="13" y="136" class="tf">notes<tspan x="137" class="ty">string</tspan></text></svg></g></g><text class="qdbd-link" x="10" y="20">www.quickdatabasediagrams.com</text></svg>