<svg class="diagram-root" style="background: #f5f6f6" xmlns="http://www.w3.org/2000/svg" xmlns:xlink="http://www.w3.org/1999/xlink"><style>.diagram-root { font-family: "Helvetica Neue", sans-serif; font-size: 12px; } .t { overflow: visible; } .t-bg { y: 40; fill: #fff;   } .th { fill: #005aa0;   } .tht { fill: #fff; font-size: 14px;  } .tf { fill: #323c46; overflow: visible; } .tf.pk { fill: #005aa0; font-weight: bold; } .tf.fk { font-weight: bold; } .ty { fill: #adb1b5; font-weight: normal; text-anchor: end; } .r { fill: transparent; stroke: #c3c3c3; stroke-width: 1; } .l { stroke: 1; } .i { fill: #c2c7ce; stroke: #c2c7ce; } .i.ix { fill: #afb3b6; stroke: #000; } .fa { fill: transparent; overflow: visible; } .fa .bg.hover { fill: #f7f7f7; } .c { cy: 12; r: 4; stroke: #d2d2dc; fill: #d2d2dc; } .hr { fill: transparent; stroke: #323c46; stroke-opacity: 0.035; stroke-width: 13; } .dc { stroke: #fa5a3c; fill: #fa5a3c; } .x { stroke: white; stroke-width: 1; } .hl .th { fill: #1b9bff; } .hl .tht {  } .fhl .bg { fill: #e7f4ff; } .fhls .bg {  } .r.hl { stroke: #1b9bff; } .dim { opacity: 0.25; }</style><g class="drawing-wrapper" transform="translate(26.28571428571428, 7.13999999999999) scale(1,1)"><g class="rs"><path d="M 322.14 201.28 m -1, 0 a 1,1 0 1,0 2,0 a 1,1 0 1,0 -2,0 M 322.14 201.28 m -0.5, 0 a 0.5,0.5 0 1,0 1,0 a 0.5,0.5 0 1,0 -1,0  M322.14 201.28 L322.14 201.28 310.14 201.28 M 322.14 207.28 m -1, 0 a 1,1 0 1,0 2,0 a 1,1 0 1,0 -2,0 M 322.14 207.28 m -0.5, 0 a 0.5,0.5 0 1,0 1,0 a 0.5,0.5 0 1,0 -1,0  M322.14 207.28 L322.14 207.28 315.14 201.28 322.14 195.28 M 322.14 195.28 m -1, 0 a 1,1 0 1,0 2,0 a 1,1 0 1,0 -2,0 M 322.14 195.28 m -0.5, 0 a 0.5,0.5 0 1,0 1,0 a 0.5,0.5 0 1,0 -1,0  M310.14 201.28 Q 276.75 201.28, 243.36 282 T 176.57 362.71 M 164.57 362.71 m -1, 0 a 1,1 0 1,0 2,0 a 1,1 0 1,0 -2,0 M 164.57 362.71 m -0.5, 0 a 0.5,0.5 0 1,0 1,0 a 0.5,0.5 0 1,0 -1,0  M164.57 362.71 L164.57 362.71 176.57 362.71 M170.57 368.71 L170.57 368.71 170.57 356.71" id="h1136240525" class="r"></path><path d="M 514.29 602.01 m -1, 0 a 1,1 0 1,0 2,0 a 1,1 0 1,0 -2,0 M 514.29 602.01 m -0.5, 0 a 0.5,0.5 0 1,0 1,0 a 0.5,0.5 0 1,0 -1,0  M514.29 602.01 L514.29 602.01 502.28999999999996 602.01 M 514.29 608.01 m -1, 0 a 1,1 0 1,0 2,0 a 1,1 0 1,0 -2,0 M 514.29 608.01 m -0.5, 0 a 0.5,0.5 0 1,0 1,0 a 0.5,0.5 0 1,0 -1,0  M514.29 608.01 L514.29 608.01 507.28999999999996 602.01 514.29 596.01 M 514.29 596.01 m -1, 0 a 1,1 0 1,0 2,0 a 1,1 0 1,0 -2,0 M 514.29 596.01 m -0.5, 0 a 0.5,0.5 0 1,0 1,0 a 0.5,0.5 0 1,0 -1,0  M502.28999999999996 602.01 Q 420.86 602.01, 339.43 482.36 T 176.57 362.71 M 164.57 362.71 m -1, 0 a 1,1 0 1,0 2,0 a 1,1 0 1,0 -2,0 M 164.57 362.71 m -0.5, 0 a 0.5,0.5 0 1,0 1,0 a 0.5,0.5 0 1,0 -1,0  M164.57 362.71 L164.57 362.71 176.57 362.71 M170.57 368.71 L170.57 368.71 170.57 356.71" id="h3506573971" class="r"></path><path d="M 514.29 627.01 m -1, 0 a 1,1 0 1,0 2,0 a 1,1 0 1,0 -2,0 M 514.29 627.01 m -0.5, 0 a 0.5,0.5 0 1,0 1,0 a 0.5,0.5 0 1,0 -1,0  M514.29 627.01 L514.29 627.01 502.28999999999996 627.01 M 514.29 633.01 m -1, 0 a 1,1 0 1,0 2,0 a 1,1 0 1,0 -2,0 M 514.29 633.01 m -0.5, 0 a 0.5,0.5 0 1,0 1,0 a 0.5,0.5 0 1,0 -1,0  M514.29 633.01 L514.29 633.01 507.28999999999996 627.01 514.29 621.01 M 514.29 621.01 m -1, 0 a 1,1 0 1,0 2,0 a 1,1 0 1,0 -2,0 M 514.29 621.01 m -0.5, 0 a 0.5,0.5 0 1,0 1,0 a 0.5,0.5 0 1,0 -1,0  M502.28999999999996 627.01 Q 420.86 627.01, 339.43 494.86 T 176.57 362.71 M 164.57 362.71 m -1, 0 a 1,1 0 1,0 2,0 a 1,1 0 1,0 -2,0 M 164.57 362.71 m -0.5, 0 a 0.5,0.5 0 1,0 1,0 a 0.5,0.5 0 1,0 -1,0  M164.57 362.71 L164.57 362.71 176.57 362.71 M170.57 368.71 L170.57 368.71 170.57 356.71" id="h1474353982" class="r"></path><path d="M 514.29 727.01 m -1, 0 a 1,1 0 1,0 2,0 a 1,1 0 1,0 -2,0 M 514.29 727.01 m -0.5, 0 a 0.5,0.5 0 1,0 1,0 a 0.5,0.5 0 1,0 -1,0  M514.29 727.01 L514.29 727.01 502.28999999999996 727.01 M 514.29 733.01 m -1, 0 a 1,1 0 1,0 2,0 a 1,1 0 1,0 -2,0 M 514.29 733.01 m -0.5, 0 a 0.5,0.5 0 1,0 1,0 a 0.5,0.5 0 1,0 -1,0  M514.29 733.01 L514.29 733.01 507.28999999999996 727.01 514.29 721.01 M 514.29 721.01 m -1, 0 a 1,1 0 1,0 2,0 a 1,1 0 1,0 -2,0 M 514.29 721.01 m -0.5, 0 a 0.5,0.5 0 1,0 1,0 a 0.5,0.5 0 1,0 -1,0  M502.28999999999996 727.01 Q 413.65 727.01, 325 725.58 T 147.71 724.15 M 135.71 724.15 m -1, 0 a 1,1 0 1,0 2,0 a 1,1 0 1,0 -2,0 M 135.71 724.15 m -0.5, 0 a 0.5,0.5 0 1,0 1,0 a 0.5,0.5 0 1,0 -1,0  M135.71 724.15 L135.71 724.15 147.71 724.15 M141.71 730.15 L141.71 730.15 141.71 718.15" id="h1850183671" class="r"></path><path d="M 514.29 752.01 m -1, 0 a 1,1 0 1,0 2,0 a 1,1 0 1,0 -2,0 M 514.29 752.01 m -0.5, 0 a 0.5,0.5 0 1,0 1,0 a 0.5,0.5 0 1,0 -1,0  M514.29 752.01 L514.29 752.01 502.28999999999996 752.01 M 514.29 758.01 m -1, 0 a 1,1 0 1,0 2,0 a 1,1 0 1,0 -2,0 M 514.29 758.01 m -0.5, 0 a 0.5,0.5 0 1,0 1,0 a 0.5,0.5 0 1,0 -1,0  M514.29 758.01 L514.29 758.01 507.28999999999996 752.01 514.29 746.01 M 514.29 746.01 m -1, 0 a 1,1 0 1,0 2,0 a 1,1 0 1,0 -2,0 M 514.29 746.01 m -0.5, 0 a 0.5,0.5 0 1,0 1,0 a 0.5,0.5 0 1,0 -1,0  M502.28999999999996 752.01 Q 471.11 752.01, 439.93 778.79 T 377.57 805.57 M 365.57 805.57 m -1, 0 a 1,1 0 1,0 2,0 a 1,1 0 1,0 -2,0 M 365.57 805.57 m -0.5, 0 a 0.5,0.5 0 1,0 1,0 a 0.5,0.5 0 1,0 -1,0  M365.57 805.57 L365.57 805.57 377.57 805.57 M371.57 811.57 L371.57 811.57 371.57 799.57" id="h3740986609" class="r"></path><path d="M 514.29 777.01 m -1, 0 a 1,1 0 1,0 2,0 a 1,1 0 1,0 -2,0 M 514.29 777.01 m -0.5, 0 a 0.5,0.5 0 1,0 1,0 a 0.5,0.5 0 1,0 -1,0  M514.29 777.01 L514.29 777.01 502.28999999999996 777.01 M 514.29 783.01 m -1, 0 a 1,1 0 1,0 2,0 a 1,1 0 1,0 -2,0 M 514.29 783.01 m -0.5, 0 a 0.5,0.5 0 1,0 1,0 a 0.5,0.5 0 1,0 -1,0  M514.29 783.01 L514.29 783.01 507.28999999999996 777.01 514.29 771.01 M 514.29 771.01 m -1, 0 a 1,1 0 1,0 2,0 a 1,1 0 1,0 -2,0 M 514.29 771.01 m -0.5, 0 a 0.5,0.5 0 1,0 1,0 a 0.5,0.5 0 1,0 -1,0  M502.28999999999996 777.01 Q 471.11 777.01, 439.93 791.29 T 377.57 805.57 M 365.57 805.57 m -1, 0 a 1,1 0 1,0 2,0 a 1,1 0 1,0 -2,0 M 365.57 805.57 m -0.5, 0 a 0.5,0.5 0 1,0 1,0 a 0.5,0.5 0 1,0 -1,0  M365.57 805.57 L365.57 805.57 377.57 805.57 M371.57 811.57 L371.57 811.57 371.57 799.57" id="h277728768" class="r"></path><path d="M 514.29 802.01 m -1, 0 a 1,1 0 1,0 2,0 a 1,1 0 1,0 -2,0 M 514.29 802.01 m -0.5, 0 a 0.5,0.5 0 1,0 1,0 a 0.5,0.5 0 1,0 -1,0  M514.29 802.01 L514.29 802.01 502.28999999999996 802.01 M 514.29 808.01 m -1, 0 a 1,1 0 1,0 2,0 a 1,1 0 1,0 -2,0 M 514.29 808.01 m -0.5, 0 a 0.5,0.5 0 1,0 1,0 a 0.5,0.5 0 1,0 -1,0  M514.29 808.01 L514.29 808.01 507.28999999999996 802.01 514.29 796.01 M 514.29 796.01 m -1, 0 a 1,1 0 1,0 2,0 a 1,1 0 1,0 -2,0 M 514.29 796.01 m -0.5, 0 a 0.5,0.5 0 1,0 1,0 a 0.5,0.5 0 1,0 -1,0  M502.28999999999996 802.01 Q 471.11 802.01, 439.93 803.79 T 377.57 805.57 M 365.57 805.57 m -1, 0 a 1,1 0 1,0 2,0 a 1,1 0 1,0 -2,0 M 365.57 805.57 m -0.5, 0 a 0.5,0.5 0 1,0 1,0 a 0.5,0.5 0 1,0 -1,0  M365.57 805.57 L365.57 805.57 377.57 805.57 M371.57 811.57 L371.57 811.57 371.57 799.57" id="h2774181775" class="r"></path><path d="M 996.4314285714291 484.85428571428565 m -1, 0 a 1,1 0 1,0 2,0 a 1,1 0 1,0 -2,0 M 996.4314285714291 484.85428571428565 m -0.5, 0 a 0.5,0.5 0 1,0 1,0 a 0.5,0.5 0 1,0 -1,0  M996.4314285714291 484.85428571428565 L996.4314285714291 484.85428571428565 984.4314285714291 484.85428571428565 M 996.4314285714291 490.85428571428565 m -1, 0 a 1,1 0 1,0 2,0 a 1,1 0 1,0 -2,0 M 996.4314285714291 490.85428571428565 m -0.5, 0 a 0.5,0.5 0 1,0 1,0 a 0.5,0.5 0 1,0 -1,0  M996.4314285714291 490.85428571428565 L996.4314285714291 490.85428571428565 989.4314285714291 484.85428571428565 996.4314285714291 478.85428571428565 M 996.4314285714291 478.85428571428565 m -1, 0 a 1,1 0 1,0 2,0 a 1,1 0 1,0 -2,0 M 996.4314285714291 478.85428571428565 m -0.5, 0 a 0.5,0.5 0 1,0 1,0 a 0.5,0.5 0 1,0 -1,0  M984.4314285714291 484.85428571428565 Q 854.61 484.85428571428565, 724.79 293.07 T 465.14 101.28 M 453.14 101.28 m -1, 0 a 1,1 0 1,0 2,0 a 1,1 0 1,0 -2,0 M 453.14 101.28 m -0.5, 0 a 0.5,0.5 0 1,0 1,0 a 0.5,0.5 0 1,0 -1,0  M453.14 101.28 L453.14 101.28 465.14 101.28 M459.14 107.28 L459.14 107.28 459.14 95.28" id="h4006780198" class="r"></path><path d="M 996.4314285714291 509.85428571428565 m -1, 0 a 1,1 0 1,0 2,0 a 1,1 0 1,0 -2,0 M 996.4314285714291 509.85428571428565 m -0.5, 0 a 0.5,0.5 0 1,0 1,0 a 0.5,0.5 0 1,0 -1,0  M996.4314285714291 509.85428571428565 L996.4314285714291 509.85428571428565 984.4314285714291 509.85428571428565 M 996.4314285714291 515.8542857142857 m -1, 0 a 1,1 0 1,0 2,0 a 1,1 0 1,0 -2,0 M 996.4314285714291 515.8542857142857 m -0.5, 0 a 0.5,0.5 0 1,0 1,0 a 0.5,0.5 0 1,0 -1,0  M996.4314285714291 515.8542857142857 L996.4314285714291 515.8542857142857 989.4314285714291 509.85428571428565 996.4314285714291 503.85428571428565 M 996.4314285714291 503.85428571428565 m -1, 0 a 1,1 0 1,0 2,0 a 1,1 0 1,0 -2,0 M 996.4314285714291 503.85428571428565 m -0.5, 0 a 0.5,0.5 0 1,0 1,0 a 0.5,0.5 0 1,0 -1,0  M984.4314285714291 509.85428571428565 Q 916.65 509.85428571428565, 848.86 543.43 T 713.29 577.01 M 701.29 577.01 m -1, 0 a 1,1 0 1,0 2,0 a 1,1 0 1,0 -2,0 M 701.29 577.01 m -0.5, 0 a 0.5,0.5 0 1,0 1,0 a 0.5,0.5 0 1,0 -1,0  M701.29 577.01 L701.29 577.01 713.29 577.01 M707.29 583.01 L707.29 583.01 707.29 571.01" id="h707267022" class="r"></path><path d="M 996.4314285714291 534.8542857142857 m -1, 0 a 1,1 0 1,0 2,0 a 1,1 0 1,0 -2,0 M 996.4314285714291 534.8542857142857 m -0.5, 0 a 0.5,0.5 0 1,0 1,0 a 0.5,0.5 0 1,0 -1,0  M996.4314285714291 534.8542857142857 L996.4314285714291 534.8542857142857 984.4314285714291 534.8542857142857 M 996.4314285714291 540.8542857142857 m -1, 0 a 1,1 0 1,0 2,0 a 1,1 0 1,0 -2,0 M 996.4314285714291 540.8542857142857 m -0.5, 0 a 0.5,0.5 0 1,0 1,0 a 0.5,0.5 0 1,0 -1,0  M996.4314285714291 540.8542857142857 L996.4314285714291 540.8542857142857 989.4314285714291 534.8542857142857 996.4314285714291 528.8542857142857 M 996.4314285714291 528.8542857142857 m -1, 0 a 1,1 0 1,0 2,0 a 1,1 0 1,0 -2,0 M 996.4314285714291 528.8542857142857 m -0.5, 0 a 0.5,0.5 0 1,0 1,0 a 0.5,0.5 0 1,0 -1,0  M984.4314285714291 534.8542857142857 Q 782.47 534.8542857142857, 580.5 448.78 T 176.57 362.71 M 164.57 362.71 m -1, 0 a 1,1 0 1,0 2,0 a 1,1 0 1,0 -2,0 M 164.57 362.71 m -0.5, 0 a 0.5,0.5 0 1,0 1,0 a 0.5,0.5 0 1,0 -1,0  M164.57 362.71 L164.57 362.71 176.57 362.71 M170.57 368.71 L170.57 368.71 170.57 356.71" id="h2709983642" class="r"></path><path d="M 830 104.86 m -1, 0 a 1,1 0 1,0 2,0 a 1,1 0 1,0 -2,0 M 830 104.86 m -0.5, 0 a 0.5,0.5 0 1,0 1,0 a 0.5,0.5 0 1,0 -1,0  M830 104.86 L830 104.86 818 104.86 M 830 110.86 m -1, 0 a 1,1 0 1,0 2,0 a 1,1 0 1,0 -2,0 M 830 110.86 m -0.5, 0 a 0.5,0.5 0 1,0 1,0 a 0.5,0.5 0 1,0 -1,0  M830 110.86 L830 110.86 823 104.86 830 98.86 M 830 98.86 m -1, 0 a 1,1 0 1,0 2,0 a 1,1 0 1,0 -2,0 M 830 98.86 m -0.5, 0 a 0.5,0.5 0 1,0 1,0 a 0.5,0.5 0 1,0 -1,0  M818 104.86 Q 729.79 104.86, 641.57 103.07 T 465.14 101.28 M 453.14 101.28 m -1, 0 a 1,1 0 1,0 2,0 a 1,1 0 1,0 -2,0 M 453.14 101.28 m -0.5, 0 a 0.5,0.5 0 1,0 1,0 a 0.5,0.5 0 1,0 -1,0  M453.14 101.28 L453.14 101.28 465.14 101.28 M459.14 107.28 L459.14 107.28 459.14 95.28" id="h3785545055" class="r"></path><path d="M 830 129.86 m -1, 0 a 1,1 0 1,0 2,0 a 1,1 0 1,0 -2,0 M 830 129.86 m -0.5, 0 a 0.5,0.5 0 1,0 1,0 a 0.5,0.5 0 1,0 -1,0  M830 129.86 L830 129.86 818 129.86 M 830 135.86 m -1, 0 a 1,1 0 1,0 2,0 a 1,1 0 1,0 -2,0 M 830 135.86 m -0.5, 0 a 0.5,0.5 0 1,0 1,0 a 0.5,0.5 0 1,0 -1,0  M830 135.86 L830 135.86 823 129.86 830 123.86000000000001 M 830 123.86000000000001 m -1, 0 a 1,1 0 1,0 2,0 a 1,1 0 1,0 -2,0 M 830 123.86000000000001 m -0.5, 0 a 0.5,0.5 0 1,0 1,0 a 0.5,0.5 0 1,0 -1,0  M818 129.86 Q 791.83 129.86, 765.65 353.44 T 713.29 577.01 M 701.29 577.01 m -1, 0 a 1,1 0 1,0 2,0 a 1,1 0 1,0 -2,0 M 701.29 577.01 m -0.5, 0 a 0.5,0.5 0 1,0 1,0 a 0.5,0.5 0 1,0 -1,0  M701.29 577.01 L701.29 577.01 713.29 577.01 M707.29 583.01 L707.29 583.01 707.29 571.01" id="h2979984700" class="r"></path><path d="M 887.15 279.14 m -1, 0 a 1,1 0 1,0 2,0 a 1,1 0 1,0 -2,0 M 887.15 279.14 m -0.5, 0 a 0.5,0.5 0 1,0 1,0 a 0.5,0.5 0 1,0 -1,0  M887.15 279.14 L887.15 279.14 875.15 279.14 M 887.15 285.14 m -1, 0 a 1,1 0 1,0 2,0 a 1,1 0 1,0 -2,0 M 887.15 285.14 m -0.5, 0 a 0.5,0.5 0 1,0 1,0 a 0.5,0.5 0 1,0 -1,0  M887.15 285.14 L887.15 285.14 880.15 279.14 887.15 273.14 M 887.15 273.14 m -1, 0 a 1,1 0 1,0 2,0 a 1,1 0 1,0 -2,0 M 887.15 273.14 m -0.5, 0 a 0.5,0.5 0 1,0 1,0 a 0.5,0.5 0 1,0 -1,0  M875.15 279.14 Q 700.51 279.14, 525.86 320.92 T 176.57 362.71 M 164.57 362.71 m -1, 0 a 1,1 0 1,0 2,0 a 1,1 0 1,0 -2,0 M 164.57 362.71 m -0.5, 0 a 0.5,0.5 0 1,0 1,0 a 0.5,0.5 0 1,0 -1,0  M164.57 362.71 L164.57 362.71 176.57 362.71 M170.57 368.71 L170.57 368.71 170.57 356.71" id="h1074589544" class="r"></path><path d="M 887.15 304.14 m -1, 0 a 1,1 0 1,0 2,0 a 1,1 0 1,0 -2,0 M 887.15 304.14 m -0.5, 0 a 0.5,0.5 0 1,0 1,0 a 0.5,0.5 0 1,0 -1,0  M887.15 304.14 L887.15 304.14 875.15 304.14 M 887.15 310.14 m -1, 0 a 1,1 0 1,0 2,0 a 1,1 0 1,0 -2,0 M 887.15 310.14 m -0.5, 0 a 0.5,0.5 0 1,0 1,0 a 0.5,0.5 0 1,0 -1,0  M887.15 310.14 L887.15 310.14 880.15 304.14 887.15 298.14 M 887.15 298.14 m -1, 0 a 1,1 0 1,0 2,0 a 1,1 0 1,0 -2,0 M 887.15 298.14 m -0.5, 0 a 0.5,0.5 0 1,0 1,0 a 0.5,0.5 0 1,0 -1,0  M875.15 304.14 Q 834.69 304.14, 794.22 440.58 T 713.29 577.01 M 701.29 577.01 m -1, 0 a 1,1 0 1,0 2,0 a 1,1 0 1,0 -2,0 M 701.29 577.01 m -0.5, 0 a 0.5,0.5 0 1,0 1,0 a 0.5,0.5 0 1,0 -1,0  M701.29 577.01 L701.29 577.01 713.29 577.01 M707.29 583.01 L707.29 583.01 707.29 571.01" id="h475762089" class="r"></path></g><g class="hrs"></g><g class="ts"><svg width="126" height="125" x="38.57" y="305.71" id="h2129428134" class="t"><rect height="40" width="126" class="th"></rect><text x="13" y="25" class="tht">teams</text><rect height="85" width="126" class="t-bg" y="40"></rect><text x="13" y="61" class="tf pk">teamsID<tspan x="113" class="ty">int</tspan></text><path d="M7,14A2,2 0 0,1 5,12A2,2 0 0,1 7,10A2,2 0 0,1 9,12A2,2 0 0,1 7,14M12.65,10C11.83,7.67 9.61,6 7, 6A6, 6 0 0, 0 1, 12A6, 6 0 0, 0 7, 18C9.61, 18 11.83, 16.33 12.65, 14H17V18H21V14H23V10H12.65Z" class="i pk" transform="translate(80, 48) scale(0.65)"></path><text x="13" y="86" class="tf">name<tspan x="113" class="ty">string</tspan></text><text x="13" y="111" class="tf">city<tspan x="113" class="ty">string</tspan></text></svg><svg width="131" height="175" x="322.14" y="44.28" id="h2511403611" class="t"><rect height="40" width="131" class="th"></rect><text x="13" y="25" class="tht">players</text><rect height="135" width="131" class="t-bg" y="40"></rect><text x="13" y="61" class="tf pk">playersID<tspan x="118" class="ty">int</tspan></text><path d="M7,14A2,2 0 0,1 5,12A2,2 0 0,1 7,10A2,2 0 0,1 9,12A2,2 0 0,1 7,14M12.65,10C11.83,7.67 9.61,6 7, 6A6, 6 0 0, 0 1, 12A6, 6 0 0, 0 7, 18C9.61, 18 11.83, 16.33 12.65, 14H17V18H21V14H23V10H12.65Z" class="i pk" transform="translate(85, 48) scale(0.65)"></path><text x="13" y="86" class="tf">name<tspan x="118" class="ty">string</tspan></text><text x="13" y="111" class="tf">birthday<tspan x="118" class="ty">date</tspan></text><text x="13" y="136" class="tf">height<tspan x="118" class="ty">float</tspan></text><text x="13" y="161" class="tf fk">team_id<tspan x="118" class="ty">int</tspan></text></svg><svg width="137" height="100" x="228.57" y="748.57" id="h441037955" class="t"><rect height="40" width="137" class="th"></rect><text x="13" y="25" class="tht">referees</text><rect height="60" width="137" class="t-bg" y="40"></rect><text x="13" y="61" class="tf pk">refereesID<tspan x="124" class="ty">int</tspan></text><path d="M7,14A2,2 0 0,1 5,12A2,2 0 0,1 7,10A2,2 0 0,1 9,12A2,2 0 0,1 7,14M12.65,10C11.83,7.67 9.61,6 7, 6A6, 6 0 0, 0 1, 12A6, 6 0 0, 0 7, 18C9.61, 18 11.83, 16.33 12.65, 14H17V18H21V14H23V10H12.65Z" class="i pk" transform="translate(91, 48) scale(0.65)"></path><text x="13" y="86" class="tf">name<tspan x="124" class="ty">string</tspan></text></svg><svg width="140" height="125" x="-4.29" y="667.15" id="h2259709164" class="t"><rect height="40" width="140" class="th"></rect><text x="13" y="25" class="tht">seasons</text><rect height="85" width="140" class="t-bg" y="40"></rect><text x="13" y="61" class="tf pk">seasonsID<tspan x="127" class="ty">int</tspan></text><path d="M7,14A2,2 0 0,1 5,12A2,2 0 0,1 7,10A2,2 0 0,1 9,12A2,2 0 0,1 7,14M12.65,10C11.83,7.67 9.61,6 7, 6A6, 6 0 0, 0 1, 12A6, 6 0 0, 0 7, 18C9.61, 18 11.83, 16.33 12.65, 14H17V18H21V14H23V10H12.65Z" class="i pk" transform="translate(94, 48) scale(0.65)"></path><text x="13" y="86" class="tf">start_date<tspan x="127" class="ty">date</tspan></text><text x="13" y="111" class="tf">end_date<tspan x="127" class="ty">date</tspan></text></svg><svg width="187" height="300" x="514.29" y="520.01" id="h272759971" class="t"><rect height="40" width="187" class="th"></rect><text x="13" y="25" class="tht">matches</text><rect height="260" width="187" class="t-bg" y="40"></rect><text x="13" y="61" class="tf pk">matchesID<tspan x="174" class="ty">int</tspan></text><path d="M7,14A2,2 0 0,1 5,12A2,2 0 0,1 7,10A2,2 0 0,1 9,12A2,2 0 0,1 7,14M12.65,10C11.83,7.67 9.61,6 7, 6A6, 6 0 0, 0 1, 12A6, 6 0 0, 0 7, 18C9.61, 18 11.83, 16.33 12.65, 14H17V18H21V14H23V10H12.65Z" class="i pk" transform="translate(141, 48) scale(0.65)"></path><text x="13" y="86" class="tf fk">home_team_id<tspan x="174" class="ty">int</tspan></text><text x="13" y="111" class="tf fk">away_tem_id<tspan x="174" class="ty">int</tspan></text><text x="13" y="136" class="tf">location<tspan x="174" class="ty">string</tspan></text><text x="13" y="161" class="tf">date<tspan x="174" class="ty">date</tspan></text><text x="13" y="186" class="tf">start_time<tspan x="174" class="ty">time</tspan></text><text x="13" y="211" class="tf fk">season_id<tspan x="174" class="ty">int</tspan></text><text x="13" y="236" class="tf fk">head_referee_id<tspan x="174" class="ty">int</tspan></text><text x="13" y="261" class="tf fk">assistent_referee_1_id<tspan x="174" class="ty">int</tspan></text><text x="13" y="286" class="tf fk">assistent_referee_2_id<tspan x="174" class="ty">int</tspan></text></svg><svg width="122" height="125" x="830" y="22.86" id="h3636817144" class="t"><rect height="40" width="122" class="th"></rect><text x="13" y="25" class="tht">goals</text><rect height="85" width="122" class="t-bg" y="40"></rect><text x="13" y="61" class="tf pk">goalsID<tspan x="109" class="ty">int</tspan></text><path d="M7,14A2,2 0 0,1 5,12A2,2 0 0,1 7,10A2,2 0 0,1 9,12A2,2 0 0,1 7,14M12.65,10C11.83,7.67 9.61,6 7, 6A6, 6 0 0, 0 1, 12A6, 6 0 0, 0 7, 18C9.61, 18 11.83, 16.33 12.65, 14H17V18H21V14H23V10H12.65Z" class="i pk" transform="translate(76, 48) scale(0.65)"></path><text x="13" y="86" class="tf fk">player_id<tspan x="109" class="ty">int</tspan></text><text x="13" y="111" class="tf fk">match_id<tspan x="109" class="ty">int</tspan></text></svg><svg width="129" height="150" x="887.15" y="197.14" id="h3479580529" class="t"><rect height="40" width="129" class="th"></rect><text x="13" y="25" class="tht">results</text><rect height="110" width="129" class="t-bg" y="40"></rect><text x="13" y="61" class="tf pk">resultsID<tspan x="116" class="ty">int</tspan></text><path d="M7,14A2,2 0 0,1 5,12A2,2 0 0,1 7,10A2,2 0 0,1 9,12A2,2 0 0,1 7,14M12.65,10C11.83,7.67 9.61,6 7, 6A6, 6 0 0, 0 1, 12A6, 6 0 0, 0 7, 18C9.61, 18 11.83, 16.33 12.65, 14H17V18H21V14H23V10H12.65Z" class="i pk" transform="translate(83, 48) scale(0.65)"></path><text x="13" y="86" class="tf fk">team_id<tspan x="116" class="ty">int</tspan></text><text x="13" y="111" class="tf fk">match_id<tspan x="116" class="ty">int</tspan></text><text x="13" y="136" class="tf">result<tspan x="116" class="ty">string</tspan></text></svg><svg width="132" height="150" x="996.4314285714291" y="402.85428571428565" id="h2360943443" class="t"><rect height="40" width="132" class="th"></rect><text x="13" y="25" class="tht">lineups</text><rect height="110" width="132" class="t-bg" y="40"></rect><text x="13" y="61" class="tf pk">lineupsID<tspan x="119" class="ty">int</tspan></text><path d="M7,14A2,2 0 0,1 5,12A2,2 0 0,1 7,10A2,2 0 0,1 9,12A2,2 0 0,1 7,14M12.65,10C11.83,7.67 9.61,6 7, 6A6, 6 0 0, 0 1, 12A6, 6 0 0, 0 7, 18C9.61, 18 11.83, 16.33 12.65, 14H17V18H21V14H23V10H12.65Z" class="i pk" transform="translate(86, 48) scale(0.65)"></path><text x="13" y="86" class="tf fk">player_id<tspan x="119" class="ty">int</tspan></text><text x="13" y="111" class="tf fk">match_id<tspan x="119" class="ty">int</tspan></text><text x="13" y="136" class="tf fk">team_id<tspan x="119" class="ty">int</tspan></text></svg></g></g><text class="qdbd-link" x="10" y="20">www.quickdatabasediagrams.com</text></svg>